<?xml version="1.0" standalone="no"?>
<!DOCTYPE svg PUBLIC "-//W3C//DTD SVG 20010904//EN"
 "http://www.w3.org/TR/2001/REC-SVG-20010904/DTD/svg10.dtd">
<svg version="1.0" xmlns="http://www.w3.org/2000/svg"
 width="500.000000pt" height="500.000000pt" viewBox="0 0 500.000000 500.000000"
 preserveAspectRatio="xMidYMid meet">
<metadata>
Created by potrace 1.11, written by Peter Selinger 2001-2013
</metadata>
<g transform="translate(0.000000,500.000000) scale(0.100000,-0.100000)"
fill="#000000" stroke="none">
<path d="M1800 4392 c-85 -6 -212 -25 -290 -43 -780 -180 -1356 -813 -1465
-1612 -21 -152 -13 -449 16 -577 5 -25 12 -59 14 -75 2 -17 18 -77 35 -135
224 -748 900 -1293 1672 -1348 133 -9 1403 -8 1478 2 50 6 122 18 205 32 17 3
68 16 115 29 486 136 898 460 1150 905 65 115 148 320 175 430 21 87 46 208
51 251 16 130 9 447 -11 559 -3 14 -6 36 -9 50 -21 123 -89 326 -158 467 -115
238 -352 533 -522 653 -12 8 -28 21 -36 29 -30 29 -208 140 -298 185 -197 99
-363 148 -642 192 -41 7 -1400 12 -1480 6z"/>
</g>
</svg>
